REM DIRINDEX 1\2,1\3,1\4
REM DIRNAME cjc075,folder01,folder02,folder03
TITLE ""
FILE "CD1Track42.mp3" MP3
  TRACK 01 AUDIO
    TITLE "0:"
    INDEX 01 00:00:00
  TRACK 02 AUDIO
    TITLE "2:cjc075_0343"
    INDEX 01 00:00:11
  TRACK 03 AUDIO
    TITLE "2:cjc075_0344"
    INDEX 01 00:04:48
  TRACK 04 AUDIO
    TITLE "2:cjc075_0345"
    INDEX 01 00:10:68
  TRACK 05 AUDIO
    TITLE "2:cjc075_0346"
    INDEX 01 00:19:42
  TRACK 06 AUDIO
    TITLE "0:"
    INDEX 01 00:35:23
